<svg id="Layer_1" data-name="Layer 1" xmlns="http://www.w3.org/2000/svg" viewBox="0 0 256 256"><defs><style>.cls-1{fill:#0acf83;}.cls-2{fill:#a259ff;}.cls-3{fill:#f24e1e;}.cls-4{fill:#ff7262;}.cls-5{fill:#1abcfe;}</style></defs><title>figma</title><path id="path0_fill" data-name="path0 fill" class="cls-1" d="M85.33,256A42.68,42.68,0,0,0,128,213.33V170.67H85.33a42.67,42.67,0,1,0,0,85.33Z"/><path id="path1_fill" data-name="path1 fill" class="cls-2" d="M42.67,128A42.68,42.68,0,0,1,85.33,85.33H128v85.33H85.33A42.68,42.68,0,0,1,42.67,128Z"/><path id="path1_fill-2" data-name="path1 fill" class="cls-3" d="M42.67,42.67A42.68,42.68,0,0,1,85.33,0H128V85.33H85.33A42.68,42.68,0,0,1,42.67,42.67Z"/><path id="path2_fill" data-name="path2 fill" class="cls-4" d="M128,0h42.67a42.67,42.67,0,0,1,0,85.33H128Z"/><path id="path3_fill" data-name="path3 fill" class="cls-5" d="M213.33,128a42.67,42.67,0,1,1-42.67-42.67A42.68,42.68,0,0,1,213.33,128Z"/></svg>